<svg xmlns="http://www.w3.org/2000/svg" width="20" height="20" viewBox="0 0 20 20" alt="datastreamsbeta icon" focusable="false" aria-hidden="true" role="img" class=" "><path fill="var(--iconPrimary, var(--lightningcss-light, rgb(41, 41, 41)) var(--lightningcss-dark, rgb(219, 219, 219)))" d="M3.86 9.815c-.32 0-.608-.01-.847-.022-.413-.022-.73-.375-.709-.79.023-.413.384-.754.79-.709 1.46.077 2.764-.065 3.558-.389l.697-.266c1.168-.445 3.037-.566 4.255-.276l.564.135c1.011.241 2.348.147 2.918-.086l1.432-.587c.382-.156.821.027.98.41.155.384-.029.821-.41.978l-1.433.586c-.928.381-2.612.451-3.836.158l-.564-.135c-.917-.22-2.492-.116-3.372.22l-.68.258c-1.018.417-2.336.515-3.344.515M4.215 7.442q-.644 0-1.307-.168c-.401-.103-.643-.51-.541-.912.103-.4.51-.64.912-.54 1.24.314 2.445-.006 3.22-.86l1.144-1.353c.966-1.142 2.718-1.333 3.909-.427l1.362 1.041c.552.42 1.394.326 1.838-.208l1.505-1.806c.266-.32.737-.363 1.057-.096.317.265.36.738.095 1.057l-1.505 1.806c-.96 1.152-2.71 1.347-3.9.44l-1.362-1.04c-.553-.422-1.402-.33-1.855.202L7.627 5.95c-.883.975-2.1 1.493-3.412 1.493M7.802 16.715c-.198 0-.396-.078-.543-.233l-1.116-1.17c-.823-.792-1.915-1.044-2.905-.655-.385.155-.82-.036-.972-.422s.037-.821.421-.972c1.53-.604 3.258-.222 4.52.99l1.138 1.194c.286.3.274.775-.026 1.06-.145.14-.33.208-.517.208M7.834 12.853q-.121 0-.242-.04l-1.08-.369c-.952-.298-2.255-.372-3.38-.187-.406.073-.794-.21-.861-.62-.068-.407.21-.793.619-.86 1.36-.224 2.89-.133 4.089.242l1.097.374c.392.133.602.56.468.952-.107.311-.398.508-.71.508M19.976 12.181q-.007-.044-.018-.086c-.012-.043-.023-.085-.043-.125-.453-1.184-2.769-1.62-4.787-1.62-2.012 0-4.32.434-4.783 1.61-.026.049-.04.101-.055.156l-.006.031c-.011.05-.031.099-.031.153v5.494c0 .009.005.017.005.025.024 1.365 2.487 2.181 4.87 2.181C17.522 20 20 19.177 20 17.8l-.001-.005.001-.004v-5.49c0-.043-.017-.08-.024-.12M18.5 14.888c-.262.263-1.49.814-3.372.814-1.887 0-3.117-.554-3.375-.817v-.93c.95.35 2.211.495 3.375.495 1.162 0 2.423-.145 3.372-.493zm-3.372-3.037c1.635 0 2.75.307 3.206.55-.455.242-1.571.55-3.206.55s-2.751-.308-3.206-.55c.455-.243 1.571-.55 3.206-.55m-3.375 5.832V16.6c.923.389 2.16.602 3.375.602s2.449-.213 3.372-.6v1.084c-.262.263-1.49.814-3.372.814-1.887 0-3.117-.554-3.375-.817"></path></svg>