<?xml version="1.0" encoding="UTF-8"?>
<svg id="artwork" xmlns="http://www.w3.org/2000/svg" version="1.1" viewBox="0 0 155 60" width="155" height="60">
  <!-- Generator: Adobe Illustrator 29.8.0, SVG Export Plug-In . SVG Version: 2.1.1 Build 160)  -->
  <defs>
    <style>
      .st0 {
        fill: #4285f4;
      }

      .st1 {
        fill: #a6a6a6;
      }

      .st2 {
        stroke: #fff;
        stroke-miterlimit: 10;
        stroke-width: .2px;
      }

      .st2, .st3, .st4 {
        fill: #fff;
      }

      .st5 {
        fill: #34a853;
      }

      .st6 {
        fill: #fbbc04;
      }

      .st4 {
        fill-opacity: 0;
      }

      .st7 {
        fill: #ea4335;
      }
    </style>
  </defs>
  <rect class="st4" width="155" height="60"/>
  <rect x="10" y="10" width="135" height="40" rx="5" ry="5"/>
  <path class="st1" d="M140,10.8c2.3,0,4.2,1.9,4.2,4.2v30c0,2.3-1.9,4.2-4.2,4.2H15c-2.3,0-4.2-1.9-4.2-4.2V15c0-2.3,1.9-4.2,4.2-4.2h125M140,10H15c-2.8,0-5,2.2-5,5v30c0,2.8,2.2,5,5,5h125c2.7,0,5-2.2,5-5V15c0-2.8-2.2-5-5-5h0Z"/>
  <g>
    <path class="st2" d="M57.4,20.2c0,.8-.2,1.5-.7,2-.6.6-1.3.9-2.2.9s-1.6-.3-2.2-.9c-.6-.6-.9-1.3-.9-2.2s.3-1.6.9-2.2c.6-.6,1.3-.9,2.2-.9s.8,0,1.2.3c.4.2.7.4.9.7l-.5.5c-.4-.5-.9-.7-1.6-.7s-1.2.2-1.6.7c-.5.4-.7,1-.7,1.7s.2,1.3.7,1.7c.5.4,1,.7,1.6.7s1.2-.2,1.7-.7c.3-.3.5-.7.5-1.2h-2.2v-.7h2.9c0,.2,0,.3,0,.5Z"/>
    <path class="st2" d="M62,17.7h-2.7v1.9h2.5v.7h-2.5v1.9h2.7v.7h-3.5v-6h3.5v.7Z"/>
    <path class="st2" d="M65.3,23h-.8v-5.3h-1.7v-.7h4.1v.7h-1.7v5.3Z"/>
    <path class="st2" d="M69.9,23v-6h.8v6h-.8Z"/>
    <path class="st2" d="M74.1,23h-.8v-5.3h-1.7v-.7h4.1v.7h-1.7v5.3Z"/>
    <path class="st2" d="M83.6,22.2c-.6.6-1.3.9-2.2.9s-1.6-.3-2.2-.9c-.6-.6-.9-1.3-.9-2.2s.3-1.6.9-2.2c.6-.6,1.3-.9,2.2-.9s1.6.3,2.2.9c.6.6.9,1.3.9,2.2s-.3,1.6-.9,2.2ZM79.8,21.7c.4.4,1,.7,1.6.7s1.2-.2,1.6-.7c.4-.4.7-1,.7-1.7s-.2-1.3-.7-1.7c-.4-.4-1-.7-1.6-.7s-1.2.2-1.6.7c-.4.4-.7,1-.7,1.7s.2,1.3.7,1.7Z"/>
    <path class="st2" d="M85.6,23v-6h.9l2.9,4.7h0v-1.2s0-3.5,0-3.5h.8v6h-.8l-3.1-4.9h0v1.2s0,3.7,0,3.7h-.8Z"/>
  </g>
  <path class="st3" d="M78.1,31.8c-2.4,0-4.3,1.8-4.3,4.3s1.9,4.3,4.3,4.3,4.3-1.8,4.3-4.3-1.9-4.3-4.3-4.3ZM78.1,38.6c-1.3,0-2.4-1.1-2.4-2.6s1.1-2.6,2.4-2.6,2.4,1,2.4,2.6-1.1,2.6-2.4,2.6ZM68.8,31.8c-2.4,0-4.3,1.8-4.3,4.3s1.9,4.3,4.3,4.3,4.3-1.8,4.3-4.3-1.9-4.3-4.3-4.3ZM68.8,38.6c-1.3,0-2.4-1.1-2.4-2.6s1.1-2.6,2.4-2.6,2.4,1,2.4,2.6-1.1,2.6-2.4,2.6ZM57.7,33.1v1.8h4.3c-.1,1-.5,1.8-1,2.3s-1.6,1.3-3.3,1.3c-2.7,0-4.7-2.1-4.7-4.8s2.1-4.8,4.7-4.8,2.5.6,3.3,1.3l1.3-1.3c-1.1-1-2.5-1.8-4.5-1.8-3.6,0-6.7,3-6.7,6.6s3.1,6.6,6.7,6.6,3.4-.6,4.6-1.9c1.2-1.2,1.6-2.9,1.6-4.2s0-.8,0-1.1h-6.1ZM103.1,34.5c-.4-1-1.4-2.7-3.6-2.7s-4,1.7-4,4.3,1.8,4.3,4.2,4.3,3.1-1.2,3.5-1.9l-1.4-1c-.5.7-1.1,1.2-2.1,1.2s-1.6-.4-2.1-1.3l5.7-2.4-.2-.5ZM97.3,35.9c0-1.6,1.3-2.5,2.2-2.5s1.4.4,1.6.9l-3.8,1.6ZM92.6,40h1.9v-12.5h-1.9v12.5ZM89.6,32.7h0c-.4-.5-1.2-1-2.2-1-2.1,0-4.1,1.9-4.1,4.3s1.9,4.2,4.1,4.2,1.8-.5,2.2-1h0v.6c0,1.6-.9,2.5-2.3,2.5s-1.9-.8-2.1-1.5l-1.6.7c.5,1.1,1.7,2.5,3.8,2.5s4-1.3,4-4.4v-7.6h-1.8v.7ZM87.4,38.6c-1.3,0-2.4-1.1-2.4-2.6s1.1-2.6,2.4-2.6,2.3,1.1,2.3,2.6-1,2.6-2.3,2.6ZM111.8,27.5h-4.5v12.5h1.9v-4.7h2.6c2.1,0,4.1-1.5,4.1-3.9s-2-3.9-4.1-3.9ZM111.9,33.5h-2.7v-4.3h2.7c1.4,0,2.2,1.2,2.2,2.1s-.8,2.1-2.2,2.1ZM123.4,31.7c-1.4,0-2.8.6-3.3,1.9l1.7.7c.4-.7,1-.9,1.7-.9s1.9.6,2,1.6h0c-.3,0-1.1-.4-1.9-.4-1.8,0-3.6,1-3.6,2.8s1.5,2.8,3.1,2.8,1.9-.6,2.4-1.2h0v1h1.8v-4.8c0-2.2-1.7-3.5-3.8-3.5ZM123.2,38.6c-.6,0-1.5-.3-1.5-1.1s1.1-1.3,2-1.3,1.2.2,1.7.4c-.1,1.2-1.1,2-2.2,2ZM133.7,32l-2.1,5.4h0l-2.2-5.4h-2l3.3,7.6-1.9,4.2h1.9l5.1-11.8h-2.1ZM116.9,40h1.9v-12.5h-1.9v12.5Z"/>
  <g>
    <path class="st7" d="M30.7,29.4l-10.6,11.3s0,0,0,0c.3,1.2,1.4,2.1,2.8,2.1s1-.1,1.5-.4h0s12-6.9,12-6.9l-5.6-6.1Z"/>
    <path class="st6" d="M41.5,27.5h0s-5.2-3-5.2-3l-5.8,5.2,5.8,5.8,5.1-3c.9-.5,1.5-1.4,1.5-2.5s-.6-2-1.5-2.5Z"/>
    <path class="st0" d="M20.1,19.3c0,.2,0,.5,0,.7v20c0,.3,0,.5,0,.7l11-11-11-10.4Z"/>
    <path class="st5" d="M30.8,30l5.5-5.5-12-6.9c-.4-.3-.9-.4-1.5-.4-1.3,0-2.5.9-2.8,2.1,0,0,0,0,0,0l10.7,10.7Z"/>
  </g>
</svg>