<svg width="18" height="18" xmlns="http://www.w3.org/2000/svg" viewBox="0 0 18 18" alt="campaigns icon" focusable="false" aria-hidden="true" role="img" class="   Zm12 Fn12 _va12"><path fill="var(--iconPrimary, var(--lightningcss-light, rgb(41, 41, 41)) var(--lightningcss-dark, rgb(219, 219, 219)))" d="M18.014 2.389c-.618-.418-1.397-.504-2.09-.229-2.96 1.178-5.211 1.853-6.174 1.853H5c-2.206 0-4 1.793-4 3.997s1.794 3.996 4 3.996h.163l2.26 5.452c.4.96 1.332 1.542 2.312 1.542.319 0 .642-.062.954-.19.617-.256 1.097-.736 1.353-1.352s.256-1.296 0-1.915l-1.422-3.426c1.165.235 3.018.838 5.313 1.74.265.104.544.155.82.155.445 0 .886-.132 1.264-.39.616-.419.983-1.114.983-1.86V4.252c0-.747-.37-1.443-.986-1.862M2.5 8.009c0-1.376 1.121-2.496 2.5-2.496h4v4.993H5c-1.379 0-2.5-1.12-2.5-2.496m8.157 8.874c-.102.246-.295.438-.542.54-.508.212-1.094-.03-1.306-.54l-2.023-4.877H8.95l1.706 4.113c.102.246.102.518 0 .764m6.843-5.12c0 .252-.12.478-.327.62-.208.14-.461.168-.692.077-2.705-1.063-4.702-1.689-5.981-1.883V5.443c1.294-.192 3.29-.82 5.979-1.888.233-.093.486-.066.692.075.209.141.329.368.329.621z"></path></svg>